<?xml version="1.0" encoding="UTF-8"?>
<svg height="16px" viewBox="0 0 16 16" width="16px" xmlns="http://www.w3.org/2000/svg">
    <g fill="#ffffff">
        <path d="m 15.609375 0 c -0.433594 0.0507812 -0.863281 0.101562 -1.296875 0.203125 c -0.527344 0.152344 -1.054688 0.304687 -1.582031 0.554687 l 0.335937 0.253907 c 0.191406 0.152343 0.335938 0.304687 0.480469 0.457031 c 0.285156 -0.050781 0.574219 -0.050781 0.863281 0 c 0.335938 0 0.671875 0.050781 1.007813 0.101562 c 0.238281 0.050782 0.429687 -0.101562 0.480469 -0.304687 l 0.09375 -0.808594 c 0.046874 -0.253906 -0.144532 -0.457031 -0.382813 -0.457031 z m 0 0"/>
        <path d="m 12.539062 1.875 l -1.152343 -0.914062 c -0.863281 -0.707032 -2.113281 -0.503907 -2.785157 0.40625 v 0.050781 c -0.910156 1.265625 -2.160156 2.125 -3.550781 2.582031 c -1.679687 0.558594 -3.214843 1.671875 -4.175781 2.988281 c -1.679688 2.378907 -0.765625 4.605469 1.25 6.480469 l -0.144531 0.960938 c 0 0.101562 0.046875 0.152343 0.144531 0.101562 l 0.238281 -0.101562 c 0.097657 -0.050782 0.144531 0 0.144531 0.101562 l -0.046874 0.253906 c 0 0.101563 0.046874 0.152344 0.140624 0.101563 l 0.242188 -0.101563 c 0.09375 -0.050781 0.144531 0 0.144531 0.101563 l -0.050781 0.25 c 0 0.101562 0.050781 0.152343 0.144531 0.101562 l 0.816407 -0.402343 c 2.257812 1.46875 4.558593 1.820312 6.238281 -0.558594 c 0.960937 -1.316406 1.535156 -3.238282 1.535156 -5.0625 c 0.050781 -1.570313 0.480469 -3.089844 1.34375 -4.304688 v -0.050781 c 0.578125 -1.011719 0.386719 -2.328125 -0.476563 -2.984375 z m 0 0"/>
    </g>
</svg>
