<?xml version="1.0" encoding="UTF-8"?>
<svg height="128px" viewBox="0 0 128 128" width="128px" xmlns="http://www.w3.org/2000/svg">
    <g stroke="#000000" transform="matrix(3.042264 0 0 3.21859 10.483168 8.483414)">
        <path d="m 33.399655 1.800146 c -0.90008 0.099519 -1.80016 0.200252 -2.70024 0.399291 c -1.099099 0.300986 -2.199482 0.600759 -3.299865 1.100783 l 0.70106 0.500025 c 0.399323 0.299773 0.699777 0.599545 0.998948 0.899317 c 0.600909 -0.099519 1.200535 -0.099519 1.80016 0 c 0.699777 0 1.400838 0.100733 2.100614 0.200253 c 0.499474 0.100733 0.90008 -0.200253 1.000232 -0.599545 l 0.199019 -1.600808 c 0.100152 -0.500025 -0.299171 -0.899316 -0.799928 -0.899316 z m 0 0" fill="#63452c"/>
        <path d="m 27.000227 5.500573 l -2.399785 -1.801061 c -1.80016 -1.399341 -4.400248 -1.00005 -5.799802 0.801011 v 0.09952 c -1.900311 2.500124 -4.500399 4.200452 -7.400942 5.099768 c -3.500169 1.100783 -6.699882 3.299922 -8.699061 5.90078 c -3.500169 4.699263 -1.601141 9.099968 2.598804 12.799182 l -0.299171 1.90058 c 0 0.200253 0.100152 0.299772 0.299171 0.200253 l 0.500758 -0.200253 c 0.200303 -0.100733 0.29917 0 0.29917 0.200253 l -0.098867 0.498811 c 0 0.200253 0.098867 0.300986 0.299171 0.200253 l 0.500757 -0.200253 c 0.199019 -0.09952 0.299171 0 0.299171 0.200253 l -0.100152 0.500024 c 0 0.200253 0.100152 0.299773 0.300455 0.200253 l 1.700008 -0.799797 c 4.700703 2.899416 9.500274 3.599694 13.000442 -1.099569 c 1.999179 -2.600858 3.199714 -6.400805 3.199714 -10.000499 c 0.100151 -3.099669 1.000231 -6.099819 2.800391 -8.500424 v -0.099519 c 1.199251 -2.0001 0.799928 -4.599744 -1.000232 -5.899566 z m 0 0" fill="#63cb00" stroke-width="0.999941"/>
    </g>
</svg>
